<mxfile host="app.diagrams.net" modified="2024-05-22T06:25:08.194Z" agent="Mozilla/5.0 (Windows NT 10.0; Win64; x64) AppleWebKit/537.36 (KHTML, like Gecko) Chrome/124.0.0.0 Safari/537.36" etag="5Y2AoEeKMz46M-QeyiRa" version="24.4.4" type="github">
  <diagram name="第 1 页" id="Xitm7BR1QgXsahXMNKrp">
    <mxGraphModel dx="2501" dy="1915" grid="1" gridSize="10" guides="1" tooltips="1" connect="1" arrows="1" fold="1" page="1" pageScale="1" pageWidth="827" pageHeight="1169" math="0" shadow="0">
      <root>
        <mxCell id="0" />
        <mxCell id="1" parent="0" />
        <mxCell id="gk9bBfAuXZcHd2vXawck-7" style="edgeStyle=orthogonalEdgeStyle;rounded=0;orthogonalLoop=1;jettySize=auto;html=1;entryX=0.5;entryY=0;entryDx=0;entryDy=0;endArrow=none;endFill=0;" parent="1" source="gk9bBfAuXZcHd2vXawck-1" target="gk9bBfAuXZcHd2vXawck-6" edge="1">
          <mxGeometry relative="1" as="geometry" />
        </mxCell>
        <mxCell id="gk9bBfAuXZcHd2vXawck-8" value="relate_id&lt;br&gt;relate_type=2" style="edgeLabel;html=1;align=center;verticalAlign=middle;resizable=0;points=[];" parent="gk9bBfAuXZcHd2vXawck-7" vertex="1" connectable="0">
          <mxGeometry x="-0.48" y="-4" relative="1" as="geometry">
            <mxPoint x="4" as="offset" />
          </mxGeometry>
        </mxCell>
        <mxCell id="gk9bBfAuXZcHd2vXawck-11" value="n&lt;br&gt;:&lt;br&gt;1" style="edgeLabel;html=1;align=center;verticalAlign=middle;resizable=0;points=[];" parent="gk9bBfAuXZcHd2vXawck-7" vertex="1" connectable="0">
          <mxGeometry x="0.02" y="2" relative="1" as="geometry">
            <mxPoint x="-2" y="9" as="offset" />
          </mxGeometry>
        </mxCell>
        <mxCell id="gk9bBfAuXZcHd2vXawck-12" value="id" style="edgeLabel;html=1;align=center;verticalAlign=middle;resizable=0;points=[];" parent="gk9bBfAuXZcHd2vXawck-7" vertex="1" connectable="0">
          <mxGeometry x="0.64" relative="1" as="geometry">
            <mxPoint as="offset" />
          </mxGeometry>
        </mxCell>
        <mxCell id="gk9bBfAuXZcHd2vXawck-14" value="" style="edgeStyle=orthogonalEdgeStyle;rounded=0;orthogonalLoop=1;jettySize=auto;html=1;endArrow=none;endFill=0;" parent="1" edge="1">
          <mxGeometry relative="1" as="geometry">
            <mxPoint x="390" y="199.5" as="sourcePoint" />
            <mxPoint x="610" y="200" as="targetPoint" />
            <Array as="points" />
          </mxGeometry>
        </mxCell>
        <mxCell id="gk9bBfAuXZcHd2vXawck-15" value="&lt;article data-content=&quot;[{&amp;quot;type&amp;quot;:&amp;quot;block&amp;quot;,&amp;quot;id&amp;quot;:&amp;quot;XwP3-1698737157789&amp;quot;,&amp;quot;name&amp;quot;:&amp;quot;paragraph&amp;quot;,&amp;quot;data&amp;quot;:{},&amp;quot;nodes&amp;quot;:[{&amp;quot;type&amp;quot;:&amp;quot;text&amp;quot;,&amp;quot;id&amp;quot;:&amp;quot;NMRr-1698737157787&amp;quot;,&amp;quot;leaves&amp;quot;:[{&amp;quot;text&amp;quot;:&amp;quot;relate_type=1&amp;quot;,&amp;quot;marks&amp;quot;:[]}]}],&amp;quot;state&amp;quot;:{}}]&quot;&gt;&lt;div style=&quot;line-height: 1.75; text-align: left;&quot;&gt;&lt;font style=&quot;font-size: 11px;&quot;&gt;relate_type=1&lt;/font&gt;&lt;/div&gt;&lt;div style=&quot;line-height: 1.75; text-align: left;&quot;&gt;特效包资源&lt;/div&gt;&lt;/article&gt;" style="edgeLabel;html=1;align=center;verticalAlign=middle;resizable=0;points=[];" parent="gk9bBfAuXZcHd2vXawck-14" vertex="1" connectable="0">
          <mxGeometry x="-0.1" y="3" relative="1" as="geometry">
            <mxPoint x="-77" y="3" as="offset" />
          </mxGeometry>
        </mxCell>
        <mxCell id="gk9bBfAuXZcHd2vXawck-19" value="&lt;article data-content=&quot;[{&amp;quot;type&amp;quot;:&amp;quot;block&amp;quot;,&amp;quot;id&amp;quot;:&amp;quot;XwP3-1698737157789&amp;quot;,&amp;quot;name&amp;quot;:&amp;quot;paragraph&amp;quot;,&amp;quot;data&amp;quot;:{},&amp;quot;nodes&amp;quot;:[{&amp;quot;type&amp;quot;:&amp;quot;text&amp;quot;,&amp;quot;id&amp;quot;:&amp;quot;NMRr-1698737157787&amp;quot;,&amp;quot;leaves&amp;quot;:[{&amp;quot;text&amp;quot;:&amp;quot;relate_id&amp;quot;,&amp;quot;marks&amp;quot;:[]}]}],&amp;quot;state&amp;quot;:{}}]&quot;&gt;&lt;div style=&quot;line-height: 1.75; text-align: left;&quot;&gt;&lt;font style=&quot;font-size: 11px;&quot;&gt;relate_id&lt;/font&gt;&lt;/div&gt;&lt;/article&gt;" style="edgeLabel;html=1;align=center;verticalAlign=middle;resizable=0;points=[];" parent="gk9bBfAuXZcHd2vXawck-14" vertex="1" connectable="0">
          <mxGeometry x="0.675" y="2" relative="1" as="geometry">
            <mxPoint x="-84" y="2" as="offset" />
          </mxGeometry>
        </mxCell>
        <mxCell id="gk9bBfAuXZcHd2vXawck-20" value="id" style="edgeLabel;html=1;align=center;verticalAlign=middle;resizable=0;points=[];" parent="gk9bBfAuXZcHd2vXawck-14" vertex="1" connectable="0">
          <mxGeometry x="0.7478" y="-2" relative="1" as="geometry">
            <mxPoint x="-2" y="-2" as="offset" />
          </mxGeometry>
        </mxCell>
        <mxCell id="gk9bBfAuXZcHd2vXawck-21" value="1:1" style="edgeLabel;html=1;align=center;verticalAlign=middle;resizable=0;points=[];" parent="gk9bBfAuXZcHd2vXawck-14" vertex="1" connectable="0">
          <mxGeometry x="0.266" relative="1" as="geometry">
            <mxPoint x="11" as="offset" />
          </mxGeometry>
        </mxCell>
        <mxCell id="gk9bBfAuXZcHd2vXawck-24" style="edgeStyle=orthogonalEdgeStyle;rounded=0;orthogonalLoop=1;jettySize=auto;html=1;endArrow=none;endFill=0;" parent="1" edge="1">
          <mxGeometry relative="1" as="geometry">
            <mxPoint x="380" y="200" as="targetPoint" />
            <mxPoint x="350" y="200" as="sourcePoint" />
          </mxGeometry>
        </mxCell>
        <mxCell id="B6y16ondcqQ7qixGHSXy-28" style="edgeStyle=orthogonalEdgeStyle;rounded=0;orthogonalLoop=1;jettySize=auto;html=1;entryX=1;entryY=0.5;entryDx=0;entryDy=0;dashed=1;dashPattern=1 4;curved=1;strokeColor=#0000FF;endArrow=none;endFill=0;" parent="1" source="gk9bBfAuXZcHd2vXawck-1" target="gk9bBfAuXZcHd2vXawck-52" edge="1">
          <mxGeometry relative="1" as="geometry" />
        </mxCell>
        <mxCell id="B6y16ondcqQ7qixGHSXy-29" value="&lt;font color=&quot;#3399ff&quot;&gt;资源与供应商的关系&lt;/font&gt;" style="edgeLabel;html=1;align=center;verticalAlign=middle;resizable=0;points=[];" parent="B6y16ondcqQ7qixGHSXy-28" vertex="1" connectable="0">
          <mxGeometry x="0.0324" y="4" relative="1" as="geometry">
            <mxPoint as="offset" />
          </mxGeometry>
        </mxCell>
        <mxCell id="yXbJXcxyzhRO19lz1-nd-18" style="edgeStyle=entityRelationEdgeStyle;rounded=0;orthogonalLoop=1;jettySize=auto;html=1;exitX=1;exitY=1;exitDx=0;exitDy=0;entryX=0;entryY=0;entryDx=0;entryDy=0;endArrow=none;endFill=0;strokeColor=none;dashed=1;dashPattern=1 4;" parent="1" source="gk9bBfAuXZcHd2vXawck-1" target="yXbJXcxyzhRO19lz1-nd-9" edge="1">
          <mxGeometry relative="1" as="geometry" />
        </mxCell>
        <mxCell id="yXbJXcxyzhRO19lz1-nd-19" value="&lt;font color=&quot;#9999ff&quot;&gt;资源与新标签的关系&lt;br&gt;（&lt;/font&gt;新标签体系&lt;font color=&quot;#9999ff&quot;&gt;）&lt;br&gt;&lt;/font&gt;" style="edgeLabel;html=1;align=center;verticalAlign=middle;resizable=0;points=[];" parent="yXbJXcxyzhRO19lz1-nd-18" vertex="1" connectable="0">
          <mxGeometry x="0.7113" y="2" relative="1" as="geometry">
            <mxPoint x="28" y="10" as="offset" />
          </mxGeometry>
        </mxCell>
        <mxCell id="gk9bBfAuXZcHd2vXawck-1" value="&lt;font style=&quot;font-size: 11px;&quot;&gt;wx_resource_v2&lt;br&gt;资源表&lt;/font&gt;" style="rounded=0;whiteSpace=wrap;html=1;" parent="1" vertex="1">
          <mxGeometry x="230" y="170" width="120" height="60" as="geometry" />
        </mxCell>
        <mxCell id="gk9bBfAuXZcHd2vXawck-10" value="" style="edgeStyle=orthogonalEdgeStyle;rounded=0;orthogonalLoop=1;jettySize=auto;html=1;endArrow=none;endFill=0;" parent="1" edge="1">
          <mxGeometry relative="1" as="geometry">
            <mxPoint x="289" y="390" as="sourcePoint" />
            <mxPoint x="289" y="510" as="targetPoint" />
          </mxGeometry>
        </mxCell>
        <mxCell id="gk9bBfAuXZcHd2vXawck-35" value="element_id" style="edgeLabel;html=1;align=center;verticalAlign=middle;resizable=0;points=[];" parent="gk9bBfAuXZcHd2vXawck-10" vertex="1" connectable="0">
          <mxGeometry x="-0.525" y="-2" relative="1" as="geometry">
            <mxPoint x="2" as="offset" />
          </mxGeometry>
        </mxCell>
        <mxCell id="gk9bBfAuXZcHd2vXawck-36" value="id" style="edgeLabel;html=1;align=center;verticalAlign=middle;resizable=0;points=[];" parent="gk9bBfAuXZcHd2vXawck-10" vertex="1" connectable="0">
          <mxGeometry x="0.375" y="-2" relative="1" as="geometry">
            <mxPoint y="5" as="offset" />
          </mxGeometry>
        </mxCell>
        <mxCell id="gk9bBfAuXZcHd2vXawck-62" value="1:1" style="edgeLabel;html=1;align=center;verticalAlign=middle;resizable=0;points=[];" parent="gk9bBfAuXZcHd2vXawck-10" vertex="1" connectable="0">
          <mxGeometry x="-0.0044" y="-2" relative="1" as="geometry">
            <mxPoint x="3" as="offset" />
          </mxGeometry>
        </mxCell>
        <mxCell id="gk9bBfAuXZcHd2vXawck-34" value="" style="edgeStyle=orthogonalEdgeStyle;rounded=0;orthogonalLoop=1;jettySize=auto;html=1;endArrow=none;endFill=0;" parent="1" source="gk9bBfAuXZcHd2vXawck-6" target="gk9bBfAuXZcHd2vXawck-33" edge="1">
          <mxGeometry relative="1" as="geometry" />
        </mxCell>
        <mxCell id="gk9bBfAuXZcHd2vXawck-37" value="serialize_no" style="edgeLabel;html=1;align=center;verticalAlign=middle;resizable=0;points=[];" parent="gk9bBfAuXZcHd2vXawck-34" vertex="1" connectable="0">
          <mxGeometry x="-0.2333" y="2" relative="1" as="geometry">
            <mxPoint x="-92" y="-2" as="offset" />
          </mxGeometry>
        </mxCell>
        <mxCell id="gk9bBfAuXZcHd2vXawck-48" value="1：n" style="edgeLabel;html=1;align=center;verticalAlign=middle;resizable=0;points=[];" parent="gk9bBfAuXZcHd2vXawck-34" vertex="1" connectable="0">
          <mxGeometry x="0.0987" y="-1" relative="1" as="geometry">
            <mxPoint as="offset" />
          </mxGeometry>
        </mxCell>
        <mxCell id="B6y16ondcqQ7qixGHSXy-22" style="rounded=0;orthogonalLoop=1;jettySize=auto;html=1;exitX=1;exitY=0.5;exitDx=0;exitDy=0;entryX=0;entryY=0.5;entryDx=0;entryDy=0;endArrow=none;endFill=0;" parent="1" source="B6y16ondcqQ7qixGHSXy-12" target="B6y16ondcqQ7qixGHSXy-21" edge="1">
          <mxGeometry relative="1" as="geometry">
            <mxPoint x="510" y="420" as="targetPoint" />
          </mxGeometry>
        </mxCell>
        <mxCell id="B6y16ondcqQ7qixGHSXy-23" value="spu_id" style="edgeLabel;html=1;align=center;verticalAlign=middle;resizable=0;points=[];" parent="B6y16ondcqQ7qixGHSXy-22" vertex="1" connectable="0">
          <mxGeometry x="-0.6907" y="-1" relative="1" as="geometry">
            <mxPoint x="5" y="-1" as="offset" />
          </mxGeometry>
        </mxCell>
        <mxCell id="B6y16ondcqQ7qixGHSXy-24" value="id" style="edgeLabel;html=1;align=center;verticalAlign=middle;resizable=0;points=[];" parent="B6y16ondcqQ7qixGHSXy-22" vertex="1" connectable="0">
          <mxGeometry x="0.5464" y="-1" relative="1" as="geometry">
            <mxPoint as="offset" />
          </mxGeometry>
        </mxCell>
        <mxCell id="B6y16ondcqQ7qixGHSXy-25" value="1:1" style="edgeLabel;html=1;align=center;verticalAlign=middle;resizable=0;points=[];" parent="B6y16ondcqQ7qixGHSXy-22" vertex="1" connectable="0">
          <mxGeometry x="0.1134" y="-3" relative="1" as="geometry">
            <mxPoint y="-3" as="offset" />
          </mxGeometry>
        </mxCell>
        <mxCell id="MGftzye2ZW7pEAbC8CXY-1" style="edgeStyle=orthogonalEdgeStyle;rounded=0;orthogonalLoop=1;jettySize=auto;html=1;exitX=1;exitY=0;exitDx=0;exitDy=0;entryX=0;entryY=0;entryDx=0;entryDy=0;curved=1;dashed=1;dashPattern=1 4;endArrow=none;endFill=0;strokeColor=#3333FF;" parent="1" source="gk9bBfAuXZcHd2vXawck-6" target="B6y16ondcqQ7qixGHSXy-21" edge="1">
          <mxGeometry relative="1" as="geometry">
            <Array as="points">
              <mxPoint x="350" y="290" />
              <mxPoint x="800" y="290" />
            </Array>
          </mxGeometry>
        </mxCell>
        <mxCell id="MGftzye2ZW7pEAbC8CXY-2" value="&lt;font color=&quot;#3399ff&quot;&gt;sku与spu的关系&lt;/font&gt;" style="edgeLabel;html=1;align=center;verticalAlign=middle;resizable=0;points=[];" parent="MGftzye2ZW7pEAbC8CXY-1" vertex="1" connectable="0">
          <mxGeometry x="-0.0642" y="-2" relative="1" as="geometry">
            <mxPoint x="37" y="-2" as="offset" />
          </mxGeometry>
        </mxCell>
        <mxCell id="gk9bBfAuXZcHd2vXawck-6" value="&lt;font style=&quot;font-size: 11px;&quot;&gt;wx_element_info&lt;br&gt;颗粒信息数据表&lt;br&gt;&lt;b style=&quot;border-color: var(--border-color);&quot;&gt;sku&lt;/b&gt;&lt;br&gt;&lt;/font&gt;" style="rounded=0;whiteSpace=wrap;html=1;" parent="1" vertex="1">
          <mxGeometry x="230" y="330" width="120" height="60" as="geometry" />
        </mxCell>
        <mxCell id="gk9bBfAuXZcHd2vXawck-40" value="" style="edgeStyle=orthogonalEdgeStyle;rounded=0;orthogonalLoop=1;jettySize=auto;html=1;endArrow=none;endFill=0;" parent="1" source="gk9bBfAuXZcHd2vXawck-9" target="gk9bBfAuXZcHd2vXawck-39" edge="1">
          <mxGeometry relative="1" as="geometry" />
        </mxCell>
        <mxCell id="gk9bBfAuXZcHd2vXawck-43" value="id" style="edgeLabel;html=1;align=center;verticalAlign=middle;resizable=0;points=[];" parent="gk9bBfAuXZcHd2vXawck-40" vertex="1" connectable="0">
          <mxGeometry x="-0.12" y="-1" relative="1" as="geometry">
            <mxPoint x="-24" y="-1" as="offset" />
          </mxGeometry>
        </mxCell>
        <mxCell id="gk9bBfAuXZcHd2vXawck-44" value="element_id" style="edgeLabel;html=1;align=center;verticalAlign=middle;resizable=0;points=[];" parent="gk9bBfAuXZcHd2vXawck-40" vertex="1" connectable="0">
          <mxGeometry x="0.42" y="-1" relative="1" as="geometry">
            <mxPoint as="offset" />
          </mxGeometry>
        </mxCell>
        <mxCell id="gk9bBfAuXZcHd2vXawck-9" value="&lt;font style=&quot;font-size: 11px;&quot;&gt;wx_element_resource&lt;br&gt;颗粒管理数据表&lt;br&gt;(旧表)&lt;/font&gt;" style="whiteSpace=wrap;html=1;rounded=0;" parent="1" vertex="1">
          <mxGeometry x="220" y="510" width="140" height="60" as="geometry" />
        </mxCell>
        <mxCell id="gk9bBfAuXZcHd2vXawck-26" value="" style="edgeStyle=orthogonalEdgeStyle;rounded=0;orthogonalLoop=1;jettySize=auto;html=1;endArrow=none;endFill=0;" parent="1" source="gk9bBfAuXZcHd2vXawck-13" target="gk9bBfAuXZcHd2vXawck-25" edge="1">
          <mxGeometry relative="1" as="geometry" />
        </mxCell>
        <mxCell id="gk9bBfAuXZcHd2vXawck-28" value="pack_info_id" style="edgeLabel;html=1;align=center;verticalAlign=middle;resizable=0;points=[];" parent="gk9bBfAuXZcHd2vXawck-26" vertex="1" connectable="0">
          <mxGeometry x="-0.6615" y="2" relative="1" as="geometry">
            <mxPoint x="5" as="offset" />
          </mxGeometry>
        </mxCell>
        <mxCell id="gk9bBfAuXZcHd2vXawck-29" value="element_info_id" style="edgeLabel;html=1;align=center;verticalAlign=middle;resizable=0;points=[];" parent="gk9bBfAuXZcHd2vXawck-26" vertex="1" connectable="0">
          <mxGeometry x="0.4933" relative="1" as="geometry">
            <mxPoint x="4" as="offset" />
          </mxGeometry>
        </mxCell>
        <mxCell id="gk9bBfAuXZcHd2vXawck-49" value="1:1" style="edgeLabel;html=1;align=center;verticalAlign=middle;resizable=0;points=[];" parent="gk9bBfAuXZcHd2vXawck-26" vertex="1" connectable="0">
          <mxGeometry x="-0.0857" y="1" relative="1" as="geometry">
            <mxPoint as="offset" />
          </mxGeometry>
        </mxCell>
        <mxCell id="gk9bBfAuXZcHd2vXawck-13" value="&lt;article data-content=&quot;[{&amp;quot;type&amp;quot;:&amp;quot;block&amp;quot;,&amp;quot;id&amp;quot;:&amp;quot;XwP3-1698737157789&amp;quot;,&amp;quot;name&amp;quot;:&amp;quot;paragraph&amp;quot;,&amp;quot;data&amp;quot;:{},&amp;quot;nodes&amp;quot;:[{&amp;quot;type&amp;quot;:&amp;quot;text&amp;quot;,&amp;quot;id&amp;quot;:&amp;quot;NMRr-1698737157787&amp;quot;,&amp;quot;leaves&amp;quot;:[{&amp;quot;text&amp;quot;:&amp;quot;wx_pack_info&amp;quot;,&amp;quot;marks&amp;quot;:[]}]}],&amp;quot;state&amp;quot;:{}}]&quot;&gt;&lt;div style=&quot;line-height: 1.75; text-align: left;&quot;&gt;&lt;font style=&quot;&quot;&gt;wx_pack_info&lt;br&gt;&lt;font style=&quot;font-size: 11px;&quot;&gt;特效包信息表&lt;/font&gt;&lt;br&gt;&lt;/font&gt;&lt;/div&gt;&lt;/article&gt;" style="whiteSpace=wrap;html=1;rounded=0;" parent="1" vertex="1">
          <mxGeometry x="610" y="170" width="120" height="60" as="geometry" />
        </mxCell>
        <mxCell id="gk9bBfAuXZcHd2vXawck-31" value="" style="edgeStyle=orthogonalEdgeStyle;rounded=0;orthogonalLoop=1;jettySize=auto;html=1;endArrow=none;endFill=0;" parent="1" source="gk9bBfAuXZcHd2vXawck-25" target="gk9bBfAuXZcHd2vXawck-30" edge="1">
          <mxGeometry relative="1" as="geometry" />
        </mxCell>
        <mxCell id="gk9bBfAuXZcHd2vXawck-32" value="id" style="edgeLabel;html=1;align=center;verticalAlign=middle;resizable=0;points=[];" parent="gk9bBfAuXZcHd2vXawck-31" vertex="1" connectable="0">
          <mxGeometry x="0.0889" y="2" relative="1" as="geometry">
            <mxPoint x="-9" y="2" as="offset" />
          </mxGeometry>
        </mxCell>
        <mxCell id="gk9bBfAuXZcHd2vXawck-25" value="&lt;article data-content=&quot;[{&amp;quot;type&amp;quot;:&amp;quot;block&amp;quot;,&amp;quot;id&amp;quot;:&amp;quot;XwP3-1698737157789&amp;quot;,&amp;quot;name&amp;quot;:&amp;quot;paragraph&amp;quot;,&amp;quot;data&amp;quot;:{},&amp;quot;nodes&amp;quot;:[{&amp;quot;type&amp;quot;:&amp;quot;text&amp;quot;,&amp;quot;id&amp;quot;:&amp;quot;NMRr-1698737157787&amp;quot;,&amp;quot;leaves&amp;quot;:[{&amp;quot;text&amp;quot;:&amp;quot;wx_pack_element_map&amp;quot;,&amp;quot;marks&amp;quot;:[]}]}],&amp;quot;state&amp;quot;:{}}]&quot;&gt;&lt;div style=&quot;line-height: 1.75; text-align: left;&quot;&gt;&lt;font style=&quot;&quot;&gt;&lt;font style=&quot;font-size: 11px;&quot;&gt;wx_pack_element_map&lt;/font&gt;&lt;/font&gt;&lt;/div&gt;&lt;div style=&quot;line-height: 1.75; text-align: left;&quot;&gt;&lt;font style=&quot;&quot;&gt;&lt;font style=&quot;font-size: 11px;&quot;&gt;特效包信息与颗粒信息&lt;/font&gt;&lt;/font&gt;&lt;/div&gt;&lt;div style=&quot;line-height: 1.75; text-align: left;&quot;&gt;&lt;font style=&quot;&quot;&gt;&lt;font style=&quot;font-size: 11px;&quot;&gt;关系表&lt;/font&gt;&lt;br&gt;&lt;/font&gt;&lt;/div&gt;&lt;/article&gt;" style="whiteSpace=wrap;html=1;rounded=0;" parent="1" vertex="1">
          <mxGeometry x="940" y="170" width="140" height="60" as="geometry" />
        </mxCell>
        <mxCell id="gk9bBfAuXZcHd2vXawck-30" value="wx_element_info&lt;br&gt;颗粒信息数据表" style="whiteSpace=wrap;html=1;rounded=0;" parent="1" vertex="1">
          <mxGeometry x="1170" y="170" width="120" height="60" as="geometry" />
        </mxCell>
        <mxCell id="gk9bBfAuXZcHd2vXawck-51" value="" style="edgeStyle=orthogonalEdgeStyle;rounded=0;orthogonalLoop=1;jettySize=auto;html=1;endArrow=none;endFill=0;" parent="1" source="gk9bBfAuXZcHd2vXawck-33" target="gk9bBfAuXZcHd2vXawck-50" edge="1">
          <mxGeometry relative="1" as="geometry" />
        </mxCell>
        <mxCell id="gk9bBfAuXZcHd2vXawck-59" value="contract_no" style="edgeLabel;html=1;align=center;verticalAlign=middle;resizable=0;points=[];" parent="gk9bBfAuXZcHd2vXawck-51" vertex="1" connectable="0">
          <mxGeometry x="-0.5072" relative="1" as="geometry">
            <mxPoint as="offset" />
          </mxGeometry>
        </mxCell>
        <mxCell id="gk9bBfAuXZcHd2vXawck-60" value="n:1" style="edgeLabel;html=1;align=center;verticalAlign=middle;resizable=0;points=[];" parent="gk9bBfAuXZcHd2vXawck-51" vertex="1" connectable="0">
          <mxGeometry x="0.1987" relative="1" as="geometry">
            <mxPoint y="-4" as="offset" />
          </mxGeometry>
        </mxCell>
        <mxCell id="gk9bBfAuXZcHd2vXawck-61" value="number" style="edgeLabel;html=1;align=center;verticalAlign=middle;resizable=0;points=[];" parent="gk9bBfAuXZcHd2vXawck-51" vertex="1" connectable="0">
          <mxGeometry x="0.5124" y="-2" relative="1" as="geometry">
            <mxPoint as="offset" />
          </mxGeometry>
        </mxCell>
        <mxCell id="gk9bBfAuXZcHd2vXawck-53" value="" style="edgeStyle=orthogonalEdgeStyle;rounded=0;orthogonalLoop=1;jettySize=auto;html=1;endArrow=none;endFill=0;entryX=0.5;entryY=1;entryDx=0;entryDy=0;" parent="1" source="gk9bBfAuXZcHd2vXawck-33" target="B6y16ondcqQ7qixGHSXy-1" edge="1">
          <mxGeometry relative="1" as="geometry" />
        </mxCell>
        <mxCell id="gk9bBfAuXZcHd2vXawck-55" value="suppier_id" style="edgeLabel;html=1;align=center;verticalAlign=middle;resizable=0;points=[];" parent="gk9bBfAuXZcHd2vXawck-53" vertex="1" connectable="0">
          <mxGeometry x="-0.3123" y="-2" relative="1" as="geometry">
            <mxPoint x="-2" y="11" as="offset" />
          </mxGeometry>
        </mxCell>
        <mxCell id="B6y16ondcqQ7qixGHSXy-3" value="suppier_id" style="edgeLabel;html=1;align=center;verticalAlign=middle;resizable=0;points=[];" parent="gk9bBfAuXZcHd2vXawck-53" vertex="1" connectable="0">
          <mxGeometry x="0.44" y="1" relative="1" as="geometry">
            <mxPoint x="1" y="-2" as="offset" />
          </mxGeometry>
        </mxCell>
        <mxCell id="B6y16ondcqQ7qixGHSXy-9" value="1:n" style="edgeLabel;html=1;align=center;verticalAlign=middle;resizable=0;points=[];" parent="gk9bBfAuXZcHd2vXawck-53" vertex="1" connectable="0">
          <mxGeometry x="-0.0333" y="1" relative="1" as="geometry">
            <mxPoint as="offset" />
          </mxGeometry>
        </mxCell>
        <mxCell id="gk9bBfAuXZcHd2vXawck-33" value="&lt;font style=&quot;font-size: 11px;&quot;&gt;wx_factory_work&lt;br&gt;供应商作品列表&lt;/font&gt;" style="whiteSpace=wrap;html=1;rounded=0;" parent="1" vertex="1">
          <mxGeometry x="-100" y="330" width="120" height="60" as="geometry" />
        </mxCell>
        <mxCell id="gk9bBfAuXZcHd2vXawck-42" value="" style="edgeStyle=orthogonalEdgeStyle;rounded=0;orthogonalLoop=1;jettySize=auto;html=1;endArrow=none;endFill=0;" parent="1" source="gk9bBfAuXZcHd2vXawck-39" target="gk9bBfAuXZcHd2vXawck-41" edge="1">
          <mxGeometry relative="1" as="geometry" />
        </mxCell>
        <mxCell id="gk9bBfAuXZcHd2vXawck-45" value="label_id" style="edgeLabel;html=1;align=center;verticalAlign=middle;resizable=0;points=[];" parent="gk9bBfAuXZcHd2vXawck-42" vertex="1" connectable="0">
          <mxGeometry x="-0.6" y="-1" relative="1" as="geometry">
            <mxPoint x="14" y="-1" as="offset" />
          </mxGeometry>
        </mxCell>
        <mxCell id="gk9bBfAuXZcHd2vXawck-39" value="&lt;font style=&quot;font-size: 11px;&quot;&gt;wx_label_element_map&lt;br&gt;颗粒和标签关系表&lt;/font&gt;" style="whiteSpace=wrap;html=1;rounded=0;" parent="1" vertex="1">
          <mxGeometry x="480" y="515" width="150" height="50" as="geometry" />
        </mxCell>
        <mxCell id="gk9bBfAuXZcHd2vXawck-41" value="&lt;font style=&quot;font-size: 11px;&quot;&gt;wx_label&lt;br&gt;&lt;font color=&quot;#ff0000&quot;&gt;老标签信息表&lt;/font&gt;&lt;/font&gt;" style="whiteSpace=wrap;html=1;rounded=0;" parent="1" vertex="1">
          <mxGeometry x="770" y="510" width="120" height="60" as="geometry" />
        </mxCell>
        <mxCell id="gk9bBfAuXZcHd2vXawck-46" value="id" style="edgeLabel;html=1;align=center;verticalAlign=middle;resizable=0;points=[];" parent="1" vertex="1" connectable="0">
          <mxGeometry x="750" y="540" as="geometry" />
        </mxCell>
        <mxCell id="gk9bBfAuXZcHd2vXawck-47" value="serialize_no" style="edgeLabel;html=1;align=center;verticalAlign=middle;resizable=0;points=[];" parent="1" vertex="1" connectable="0">
          <mxGeometry x="170.00470588235316" y="359.9999999999998" as="geometry" />
        </mxCell>
        <mxCell id="gk9bBfAuXZcHd2vXawck-50" value="wx_copyright_contract&lt;br&gt;合同管理" style="whiteSpace=wrap;html=1;rounded=0;" parent="1" vertex="1">
          <mxGeometry x="-110" y="480" width="140" height="60" as="geometry" />
        </mxCell>
        <mxCell id="B6y16ondcqQ7qixGHSXy-2" value="" style="edgeStyle=orthogonalEdgeStyle;rounded=0;orthogonalLoop=1;jettySize=auto;html=1;endArrow=none;endFill=0;" parent="1" source="gk9bBfAuXZcHd2vXawck-52" target="B6y16ondcqQ7qixGHSXy-1" edge="1">
          <mxGeometry relative="1" as="geometry" />
        </mxCell>
        <mxCell id="B6y16ondcqQ7qixGHSXy-6" value="suppier_id" style="edgeLabel;html=1;align=center;verticalAlign=middle;resizable=0;points=[];" parent="B6y16ondcqQ7qixGHSXy-2" vertex="1" connectable="0">
          <mxGeometry x="0.52" y="-3" relative="1" as="geometry">
            <mxPoint as="offset" />
          </mxGeometry>
        </mxCell>
        <mxCell id="B6y16ondcqQ7qixGHSXy-7" value="id" style="edgeLabel;html=1;align=center;verticalAlign=middle;resizable=0;points=[];" parent="B6y16ondcqQ7qixGHSXy-2" vertex="1" connectable="0">
          <mxGeometry x="-0.64" relative="1" as="geometry">
            <mxPoint as="offset" />
          </mxGeometry>
        </mxCell>
        <mxCell id="B6y16ondcqQ7qixGHSXy-8" value="1:1" style="edgeLabel;html=1;align=center;verticalAlign=middle;resizable=0;points=[];" parent="B6y16ondcqQ7qixGHSXy-2" vertex="1" connectable="0">
          <mxGeometry x="0.02" y="-2" relative="1" as="geometry">
            <mxPoint as="offset" />
          </mxGeometry>
        </mxCell>
        <mxCell id="gk9bBfAuXZcHd2vXawck-52" value="&lt;font style=&quot;font-size: 11px;&quot;&gt;wx_pgc_supplier&lt;br&gt;pgc供应商&lt;/font&gt;" style="whiteSpace=wrap;html=1;rounded=0;" parent="1" vertex="1">
          <mxGeometry x="-100" y="10" width="120" height="60" as="geometry" />
        </mxCell>
        <mxCell id="gk9bBfAuXZcHd2vXawck-66" value="" style="edgeStyle=orthogonalEdgeStyle;rounded=0;orthogonalLoop=1;jettySize=auto;html=1;endArrow=none;endFill=0;" parent="1" source="gk9bBfAuXZcHd2vXawck-63" target="gk9bBfAuXZcHd2vXawck-65" edge="1">
          <mxGeometry relative="1" as="geometry" />
        </mxCell>
        <mxCell id="gk9bBfAuXZcHd2vXawck-67" value="product_line" style="edgeLabel;html=1;align=center;verticalAlign=middle;resizable=0;points=[];" parent="gk9bBfAuXZcHd2vXawck-66" vertex="1" connectable="0">
          <mxGeometry x="-0.5338" relative="1" as="geometry">
            <mxPoint as="offset" />
          </mxGeometry>
        </mxCell>
        <mxCell id="gk9bBfAuXZcHd2vXawck-68" value="id" style="edgeLabel;html=1;align=center;verticalAlign=middle;resizable=0;points=[];" parent="gk9bBfAuXZcHd2vXawck-66" vertex="1" connectable="0">
          <mxGeometry x="0.4368" relative="1" as="geometry">
            <mxPoint y="2" as="offset" />
          </mxGeometry>
        </mxCell>
        <mxCell id="gk9bBfAuXZcHd2vXawck-69" value="n:1" style="edgeLabel;html=1;align=center;verticalAlign=middle;resizable=0;points=[];" parent="gk9bBfAuXZcHd2vXawck-66" vertex="1" connectable="0">
          <mxGeometry x="0.025" y="-2" relative="1" as="geometry">
            <mxPoint as="offset" />
          </mxGeometry>
        </mxCell>
        <mxCell id="gk9bBfAuXZcHd2vXawck-63" value="wx_element_type_productline_map&lt;br&gt;类别和产品线关系表" style="rhombus;whiteSpace=wrap;html=1;rounded=0;" parent="1" vertex="1">
          <mxGeometry x="170" y="680" width="240" height="100" as="geometry" />
        </mxCell>
        <mxCell id="gk9bBfAuXZcHd2vXawck-65" value="wx_pack_product&lt;br&gt;特效包产品线管理" style="whiteSpace=wrap;html=1;rounded=0;" parent="1" vertex="1">
          <mxGeometry x="210" y="860" width="160" height="70" as="geometry" />
        </mxCell>
        <mxCell id="B6y16ondcqQ7qixGHSXy-1" value="&lt;font style=&quot;font-size: 11px;&quot;&gt;wx_factory_work_supplier_map&lt;br style=&quot;border-color: var(--border-color);&quot;&gt;作品与供应商的关联表&lt;/font&gt;" style="whiteSpace=wrap;html=1;rounded=0;" parent="1" vertex="1">
          <mxGeometry x="-140" y="170" width="200" height="60" as="geometry" />
        </mxCell>
        <mxCell id="B6y16ondcqQ7qixGHSXy-13" style="rounded=0;orthogonalLoop=1;jettySize=auto;html=1;entryX=1;entryY=0.5;entryDx=0;entryDy=0;exitX=0;exitY=0.5;exitDx=0;exitDy=0;endArrow=none;endFill=0;" parent="1" source="B6y16ondcqQ7qixGHSXy-12" target="gk9bBfAuXZcHd2vXawck-6" edge="1">
          <mxGeometry relative="1" as="geometry" />
        </mxCell>
        <mxCell id="B6y16ondcqQ7qixGHSXy-17" value="id" style="edgeLabel;html=1;align=center;verticalAlign=middle;resizable=0;points=[];" parent="B6y16ondcqQ7qixGHSXy-13" vertex="1" connectable="0">
          <mxGeometry x="0.7477" y="2" relative="1" as="geometry">
            <mxPoint x="9" as="offset" />
          </mxGeometry>
        </mxCell>
        <mxCell id="B6y16ondcqQ7qixGHSXy-18" value="element_info_id" style="edgeLabel;html=1;align=center;verticalAlign=middle;resizable=0;points=[];" parent="B6y16ondcqQ7qixGHSXy-13" vertex="1" connectable="0">
          <mxGeometry x="-0.385" y="-2" relative="1" as="geometry">
            <mxPoint as="offset" />
          </mxGeometry>
        </mxCell>
        <mxCell id="B6y16ondcqQ7qixGHSXy-19" value="1:n" style="edgeLabel;html=1;align=center;verticalAlign=middle;resizable=0;points=[];" parent="B6y16ondcqQ7qixGHSXy-13" vertex="1" connectable="0">
          <mxGeometry x="0.2956" y="-1" relative="1" as="geometry">
            <mxPoint as="offset" />
          </mxGeometry>
        </mxCell>
        <mxCell id="B6y16ondcqQ7qixGHSXy-12" value="&lt;font style=&quot;font-size: 11px;&quot;&gt;wx_spu_element_info_map&lt;br&gt;spu 与 element info 映射表&lt;br&gt;&lt;/font&gt;" style="rhombus;whiteSpace=wrap;html=1;" parent="1" vertex="1">
          <mxGeometry x="500" y="320" width="190" height="80" as="geometry" />
        </mxCell>
        <mxCell id="J026uOZoRTp7faaSBjY_-1" style="edgeStyle=orthogonalEdgeStyle;rounded=0;orthogonalLoop=1;jettySize=auto;html=1;entryX=0.5;entryY=0;entryDx=0;entryDy=0;strokeColor=none;endArrow=none;endFill=0;" parent="1" source="B6y16ondcqQ7qixGHSXy-21" target="yXbJXcxyzhRO19lz1-nd-8" edge="1">
          <mxGeometry relative="1" as="geometry" />
        </mxCell>
        <mxCell id="J026uOZoRTp7faaSBjY_-2" style="edgeStyle=orthogonalEdgeStyle;rounded=1;orthogonalLoop=1;jettySize=auto;html=1;startArrow=none;startFill=0;endArrow=none;endFill=0;dashed=1;strokeColor=#FF0000;" parent="1" edge="1">
          <mxGeometry relative="1" as="geometry">
            <mxPoint x="920" y="390" as="sourcePoint" />
            <mxPoint x="890" y="650" as="targetPoint" />
            <Array as="points">
              <mxPoint x="1000" y="390" />
              <mxPoint x="1000" y="650" />
            </Array>
          </mxGeometry>
        </mxCell>
        <mxCell id="D59RF6kTYer1s2Anf3ri-1" value="&lt;font color=&quot;#ff120a&quot;&gt;spu与标签的关系&lt;/font&gt;" style="edgeLabel;html=1;align=center;verticalAlign=middle;resizable=0;points=[];" parent="J026uOZoRTp7faaSBjY_-2" vertex="1" connectable="0">
          <mxGeometry x="-0.0667" y="-3" relative="1" as="geometry">
            <mxPoint as="offset" />
          </mxGeometry>
        </mxCell>
        <mxCell id="B6y16ondcqQ7qixGHSXy-21" value="wx_spu" style="rounded=0;whiteSpace=wrap;html=1;" parent="1" vertex="1">
          <mxGeometry x="800" y="330" width="120" height="60" as="geometry" />
        </mxCell>
        <mxCell id="B6y16ondcqQ7qixGHSXy-33" style="edgeStyle=orthogonalEdgeStyle;rounded=0;orthogonalLoop=1;jettySize=auto;html=1;exitX=0.75;exitY=1;exitDx=0;exitDy=0;entryX=1;entryY=0;entryDx=0;entryDy=0;endArrow=none;endFill=0;" parent="1" target="gk9bBfAuXZcHd2vXawck-63" edge="1">
          <mxGeometry relative="1" as="geometry">
            <mxPoint x="349.92" y="570" as="sourcePoint" />
            <mxPoint x="348.99999999999994" y="692" as="targetPoint" />
          </mxGeometry>
        </mxCell>
        <mxCell id="B6y16ondcqQ7qixGHSXy-37" value="mobile_element_type" style="edgeLabel;html=1;align=center;verticalAlign=middle;resizable=0;points=[];" parent="B6y16ondcqQ7qixGHSXy-33" vertex="1" connectable="0">
          <mxGeometry x="-0.616" relative="1" as="geometry">
            <mxPoint y="8" as="offset" />
          </mxGeometry>
        </mxCell>
        <mxCell id="B6y16ondcqQ7qixGHSXy-39" value="n:1" style="edgeLabel;html=1;align=center;verticalAlign=middle;resizable=0;points=[];" parent="B6y16ondcqQ7qixGHSXy-33" vertex="1" connectable="0">
          <mxGeometry x="-0.1802" y="-2" relative="1" as="geometry">
            <mxPoint y="-6" as="offset" />
          </mxGeometry>
        </mxCell>
        <mxCell id="B6y16ondcqQ7qixGHSXy-40" value="element_type&lt;br&gt;platform_id=2" style="edgeLabel;html=1;align=center;verticalAlign=middle;resizable=0;points=[];" parent="B6y16ondcqQ7qixGHSXy-33" vertex="1" connectable="0">
          <mxGeometry x="0.099" y="-2" relative="1" as="geometry">
            <mxPoint y="17" as="offset" />
          </mxGeometry>
        </mxCell>
        <mxCell id="B6y16ondcqQ7qixGHSXy-34" style="edgeStyle=orthogonalEdgeStyle;rounded=0;orthogonalLoop=1;jettySize=auto;html=1;exitX=0.25;exitY=1;exitDx=0;exitDy=0;entryX=0;entryY=0;entryDx=0;entryDy=0;endArrow=none;endFill=0;" parent="1" target="gk9bBfAuXZcHd2vXawck-63" edge="1">
          <mxGeometry relative="1" as="geometry">
            <mxPoint x="230.04" y="570" as="sourcePoint" />
            <mxPoint x="230" y="700" as="targetPoint" />
          </mxGeometry>
        </mxCell>
        <mxCell id="B6y16ondcqQ7qixGHSXy-35" value="element_type" style="edgeLabel;html=1;align=center;verticalAlign=middle;resizable=0;points=[];" parent="B6y16ondcqQ7qixGHSXy-34" vertex="1" connectable="0">
          <mxGeometry x="-0.7641" y="-2" relative="1" as="geometry">
            <mxPoint x="2" y="24" as="offset" />
          </mxGeometry>
        </mxCell>
        <mxCell id="B6y16ondcqQ7qixGHSXy-36" value="element_type&lt;br&gt;plaform_id=1" style="edgeLabel;html=1;align=center;verticalAlign=middle;resizable=0;points=[];" parent="B6y16ondcqQ7qixGHSXy-34" vertex="1" connectable="0">
          <mxGeometry x="0.3948" y="-3" relative="1" as="geometry">
            <mxPoint y="1" as="offset" />
          </mxGeometry>
        </mxCell>
        <mxCell id="B6y16ondcqQ7qixGHSXy-38" value="n:1" style="edgeLabel;html=1;align=center;verticalAlign=middle;resizable=0;points=[];" parent="B6y16ondcqQ7qixGHSXy-34" vertex="1" connectable="0">
          <mxGeometry x="-0.1218" y="3" relative="1" as="geometry">
            <mxPoint x="-3" y="1" as="offset" />
          </mxGeometry>
        </mxCell>
        <mxCell id="MGftzye2ZW7pEAbC8CXY-3" value="&lt;font style=&quot;font-size: 18px;&quot;&gt;&lt;b&gt;资源颗粒信息&lt;/b&gt;&lt;/font&gt;" style="rounded=1;whiteSpace=wrap;html=1;strokeWidth=2;fillWeight=4;hachureGap=8;hachureAngle=45;fillColor=#d5e8d4;sketch=1;strokeColor=#82b366;" parent="1" vertex="1">
          <mxGeometry x="250" width="120" height="60" as="geometry" />
        </mxCell>
        <mxCell id="E3slfJ039MUQ1OmCvmN7-1" value="&lt;font style=&quot;font-size: 24px;&quot;&gt;库存中心&lt;/font&gt;" style="rounded=1;whiteSpace=wrap;html=1;strokeWidth=2;fillWeight=4;hachureGap=8;hachureAngle=45;fillColor=#dae8fc;sketch=1;strokeColor=#6c8ebf;" parent="1" vertex="1">
          <mxGeometry x="-460" y="1210" width="120" height="60" as="geometry" />
        </mxCell>
        <mxCell id="E3slfJ039MUQ1OmCvmN7-4" style="edgeStyle=orthogonalEdgeStyle;rounded=0;orthogonalLoop=1;jettySize=auto;html=1;endArrow=none;endFill=0;" parent="1" source="E3slfJ039MUQ1OmCvmN7-2" target="E3slfJ039MUQ1OmCvmN7-3" edge="1">
          <mxGeometry relative="1" as="geometry" />
        </mxCell>
        <mxCell id="E3slfJ039MUQ1OmCvmN7-5" value="id" style="edgeLabel;html=1;align=center;verticalAlign=middle;resizable=0;points=[];" parent="E3slfJ039MUQ1OmCvmN7-4" vertex="1" connectable="0">
          <mxGeometry x="-0.4286" y="2" relative="1" as="geometry">
            <mxPoint x="-2" y="-10" as="offset" />
          </mxGeometry>
        </mxCell>
        <mxCell id="E3slfJ039MUQ1OmCvmN7-6" value="demand_id" style="edgeLabel;html=1;align=center;verticalAlign=middle;resizable=0;points=[];" parent="E3slfJ039MUQ1OmCvmN7-4" vertex="1" connectable="0">
          <mxGeometry x="0.5429" relative="1" as="geometry">
            <mxPoint as="offset" />
          </mxGeometry>
        </mxCell>
        <mxCell id="E3slfJ039MUQ1OmCvmN7-7" value="1:1" style="edgeLabel;html=1;align=center;verticalAlign=middle;resizable=0;points=[];" parent="E3slfJ039MUQ1OmCvmN7-4" vertex="1" connectable="0">
          <mxGeometry x="-0.0286" y="-3" relative="1" as="geometry">
            <mxPoint as="offset" />
          </mxGeometry>
        </mxCell>
        <mxCell id="E3slfJ039MUQ1OmCvmN7-2" value="&lt;font style=&quot;&quot;&gt;wx_factory_demand&lt;br&gt;需求表&lt;br&gt;&lt;/font&gt;" style="rounded=0;whiteSpace=wrap;html=1;" parent="1" vertex="1">
          <mxGeometry x="-330" y="-100" width="120" height="60" as="geometry" />
        </mxCell>
        <mxCell id="E3slfJ039MUQ1OmCvmN7-16" value="" style="edgeStyle=orthogonalEdgeStyle;rounded=0;orthogonalLoop=1;jettySize=auto;html=1;endArrow=none;endFill=0;" parent="1" source="E3slfJ039MUQ1OmCvmN7-3" target="E3slfJ039MUQ1OmCvmN7-15" edge="1">
          <mxGeometry relative="1" as="geometry" />
        </mxCell>
        <mxCell id="E3slfJ039MUQ1OmCvmN7-18" value="id" style="edgeLabel;html=1;align=center;verticalAlign=middle;resizable=0;points=[];" parent="E3slfJ039MUQ1OmCvmN7-16" vertex="1" connectable="0">
          <mxGeometry x="-0.6" y="-2" relative="1" as="geometry">
            <mxPoint as="offset" />
          </mxGeometry>
        </mxCell>
        <mxCell id="E3slfJ039MUQ1OmCvmN7-19" value="planning_id" style="edgeLabel;html=1;align=center;verticalAlign=middle;resizable=0;points=[];" parent="E3slfJ039MUQ1OmCvmN7-16" vertex="1" connectable="0">
          <mxGeometry x="0.55" relative="1" as="geometry">
            <mxPoint as="offset" />
          </mxGeometry>
        </mxCell>
        <mxCell id="E3slfJ039MUQ1OmCvmN7-20" value="1:1" style="edgeLabel;html=1;align=center;verticalAlign=middle;resizable=0;points=[];" parent="E3slfJ039MUQ1OmCvmN7-16" vertex="1" connectable="0">
          <mxGeometry x="-0.1" y="-1" relative="1" as="geometry">
            <mxPoint as="offset" />
          </mxGeometry>
        </mxCell>
        <mxCell id="E3slfJ039MUQ1OmCvmN7-3" value="&lt;font style=&quot;&quot;&gt;wx_factory_planning规划表&lt;br&gt;&lt;/font&gt;" style="rounded=0;whiteSpace=wrap;html=1;" parent="1" vertex="1">
          <mxGeometry x="-330" y="50" width="120" height="60" as="geometry" />
        </mxCell>
        <mxCell id="OBUAfugVGKrVwssEBv_r-2" style="edgeStyle=orthogonalEdgeStyle;rounded=0;orthogonalLoop=1;jettySize=auto;html=1;entryX=0;entryY=0.5;entryDx=0;entryDy=0;endArrow=none;endFill=0;" parent="1" source="E3slfJ039MUQ1OmCvmN7-11" target="gk9bBfAuXZcHd2vXawck-33" edge="1">
          <mxGeometry relative="1" as="geometry" />
        </mxCell>
        <mxCell id="E3slfJ039MUQ1OmCvmN7-11" value="wx_factory_demand_board&lt;br&gt;需求版" style="whiteSpace=wrap;html=1;rounded=0;" parent="1" vertex="1">
          <mxGeometry x="-330" y="330" width="120" height="60" as="geometry" />
        </mxCell>
        <mxCell id="E3slfJ039MUQ1OmCvmN7-17" value="" style="edgeStyle=orthogonalEdgeStyle;rounded=0;orthogonalLoop=1;jettySize=auto;html=1;endArrow=none;endFill=0;" parent="1" source="E3slfJ039MUQ1OmCvmN7-15" target="E3slfJ039MUQ1OmCvmN7-11" edge="1">
          <mxGeometry relative="1" as="geometry" />
        </mxCell>
        <mxCell id="E3slfJ039MUQ1OmCvmN7-21" value="id" style="edgeLabel;html=1;align=center;verticalAlign=middle;resizable=0;points=[];" parent="E3slfJ039MUQ1OmCvmN7-17" vertex="1" connectable="0">
          <mxGeometry x="-0.45" y="-1" relative="1" as="geometry">
            <mxPoint as="offset" />
          </mxGeometry>
        </mxCell>
        <mxCell id="E3slfJ039MUQ1OmCvmN7-22" value="1:1" style="edgeLabel;html=1;align=center;verticalAlign=middle;resizable=0;points=[];" parent="E3slfJ039MUQ1OmCvmN7-17" vertex="1" connectable="0">
          <mxGeometry x="0.2" y="-3" relative="1" as="geometry">
            <mxPoint y="-8" as="offset" />
          </mxGeometry>
        </mxCell>
        <mxCell id="E3slfJ039MUQ1OmCvmN7-23" value="proposal_id" style="edgeLabel;html=1;align=center;verticalAlign=middle;resizable=0;points=[];" parent="E3slfJ039MUQ1OmCvmN7-17" vertex="1" connectable="0">
          <mxGeometry x="0.7" y="2" relative="1" as="geometry">
            <mxPoint y="-8" as="offset" />
          </mxGeometry>
        </mxCell>
        <mxCell id="E3slfJ039MUQ1OmCvmN7-15" value="wx_factory_proposal&lt;br&gt;指导表" style="whiteSpace=wrap;html=1;rounded=0;" parent="1" vertex="1">
          <mxGeometry x="-330" y="190" width="120" height="60" as="geometry" />
        </mxCell>
        <mxCell id="yXbJXcxyzhRO19lz1-nd-2" style="edgeStyle=entityRelationEdgeStyle;rounded=0;orthogonalLoop=1;jettySize=auto;html=1;exitX=1;exitY=1;exitDx=0;exitDy=0;entryX=0;entryY=0;entryDx=0;entryDy=0;endArrow=none;endFill=0;dashed=1;dashPattern=1 4;strokeColor=#FF0000;" parent="1" source="gk9bBfAuXZcHd2vXawck-1" target="gk9bBfAuXZcHd2vXawck-41" edge="1">
          <mxGeometry relative="1" as="geometry">
            <Array as="points">
              <mxPoint x="350" y="230" />
            </Array>
          </mxGeometry>
        </mxCell>
        <mxCell id="yXbJXcxyzhRO19lz1-nd-3" value="&lt;font color=&quot;#ff0000&quot;&gt;资源和标签的关系&lt;br&gt;(老标签体系)&lt;/font&gt;" style="edgeLabel;html=1;align=center;verticalAlign=middle;resizable=0;points=[];" parent="yXbJXcxyzhRO19lz1-nd-2" vertex="1" connectable="0">
          <mxGeometry x="0.4924" y="-1" relative="1" as="geometry">
            <mxPoint as="offset" />
          </mxGeometry>
        </mxCell>
        <mxCell id="yXbJXcxyzhRO19lz1-nd-4" value="新标签体系：wx_label_v2(id,label_id)wx_label_spu_map(spu_id,spu_id)wx_spu_element_info_map(element_info_id,id)wx_element_info(id,relate_id+relate_type=2)wx_resource_v2" style="text;html=1;align=center;verticalAlign=middle;resizable=0;points=[];autosize=1;strokeColor=none;fillColor=none;" parent="1" vertex="1">
          <mxGeometry x="340" y="90" width="980" height="30" as="geometry" />
        </mxCell>
        <mxCell id="yXbJXcxyzhRO19lz1-nd-6" value="" style="edgeStyle=orthogonalEdgeStyle;rounded=0;orthogonalLoop=1;jettySize=auto;html=1;endArrow=none;endFill=0;" parent="1" source="yXbJXcxyzhRO19lz1-nd-8" target="yXbJXcxyzhRO19lz1-nd-9" edge="1">
          <mxGeometry relative="1" as="geometry" />
        </mxCell>
        <mxCell id="yXbJXcxyzhRO19lz1-nd-7" value="label_id" style="edgeLabel;html=1;align=center;verticalAlign=middle;resizable=0;points=[];" parent="yXbJXcxyzhRO19lz1-nd-6" vertex="1" connectable="0">
          <mxGeometry x="-0.6" y="-1" relative="1" as="geometry">
            <mxPoint x="14" y="-1" as="offset" />
          </mxGeometry>
        </mxCell>
        <mxCell id="yXbJXcxyzhRO19lz1-nd-10" value="id" style="edgeLabel;html=1;align=center;verticalAlign=middle;resizable=0;points=[];" parent="yXbJXcxyzhRO19lz1-nd-6" vertex="1" connectable="0">
          <mxGeometry x="0.5308" y="-1" relative="1" as="geometry">
            <mxPoint as="offset" />
          </mxGeometry>
        </mxCell>
        <mxCell id="yXbJXcxyzhRO19lz1-nd-8" value="&lt;font style=&quot;font-size: 11px;&quot;&gt;wx_label_spu_map&lt;br&gt;颗粒和标签关系表&lt;/font&gt;" style="whiteSpace=wrap;html=1;rounded=0;" parent="1" vertex="1">
          <mxGeometry x="770" y="650" width="120" height="60" as="geometry" />
        </mxCell>
        <mxCell id="yXbJXcxyzhRO19lz1-nd-9" value="&lt;font style=&quot;font-size: 11px;&quot;&gt;wx_label_v2&lt;br&gt;&lt;font color=&quot;#ff0000&quot;&gt;新标签表&lt;/font&gt;&lt;/font&gt;" style="whiteSpace=wrap;html=1;rounded=0;" parent="1" vertex="1">
          <mxGeometry x="1010" y="650" width="120" height="60" as="geometry" />
        </mxCell>
        <mxCell id="yXbJXcxyzhRO19lz1-nd-12" style="edgeStyle=orthogonalEdgeStyle;rounded=0;orthogonalLoop=1;jettySize=auto;html=1;entryX=0;entryY=0.5;entryDx=0;entryDy=0;endArrow=none;endFill=0;" parent="1" source="yXbJXcxyzhRO19lz1-nd-11" target="yXbJXcxyzhRO19lz1-nd-8" edge="1">
          <mxGeometry relative="1" as="geometry" />
        </mxCell>
        <mxCell id="yXbJXcxyzhRO19lz1-nd-14" value="spu_id" style="edgeLabel;html=1;align=center;verticalAlign=middle;resizable=0;points=[];" parent="yXbJXcxyzhRO19lz1-nd-12" vertex="1" connectable="0">
          <mxGeometry x="0.5867" y="-1" relative="1" as="geometry">
            <mxPoint as="offset" />
          </mxGeometry>
        </mxCell>
        <mxCell id="yXbJXcxyzhRO19lz1-nd-15" value="spu_id" style="edgeLabel;html=1;align=center;verticalAlign=middle;resizable=0;points=[];" parent="yXbJXcxyzhRO19lz1-nd-12" vertex="1" connectable="0">
          <mxGeometry x="-0.64" y="-1" relative="1" as="geometry">
            <mxPoint as="offset" />
          </mxGeometry>
        </mxCell>
        <mxCell id="yXbJXcxyzhRO19lz1-nd-13" style="edgeStyle=entityRelationEdgeStyle;rounded=0;orthogonalLoop=1;jettySize=auto;html=1;entryX=1;entryY=1;entryDx=0;entryDy=0;elbow=vertical;endArrow=none;endFill=0;" parent="1" source="yXbJXcxyzhRO19lz1-nd-11" target="gk9bBfAuXZcHd2vXawck-6" edge="1">
          <mxGeometry relative="1" as="geometry" />
        </mxCell>
        <mxCell id="yXbJXcxyzhRO19lz1-nd-16" value="element_info_id" style="edgeLabel;html=1;align=center;verticalAlign=middle;resizable=0;points=[];" parent="yXbJXcxyzhRO19lz1-nd-13" vertex="1" connectable="0">
          <mxGeometry x="-0.5225" relative="1" as="geometry">
            <mxPoint as="offset" />
          </mxGeometry>
        </mxCell>
        <mxCell id="yXbJXcxyzhRO19lz1-nd-17" value="id" style="edgeLabel;html=1;align=center;verticalAlign=middle;resizable=0;points=[];" parent="yXbJXcxyzhRO19lz1-nd-13" vertex="1" connectable="0">
          <mxGeometry x="0.5334" relative="1" as="geometry">
            <mxPoint as="offset" />
          </mxGeometry>
        </mxCell>
        <mxCell id="yXbJXcxyzhRO19lz1-nd-11" value="&lt;font style=&quot;font-size: 11px;&quot;&gt;wx_spu_element_info_map&lt;br&gt;spu和颗粒关系表&lt;/font&gt;" style="whiteSpace=wrap;html=1;rounded=0;" parent="1" vertex="1">
          <mxGeometry x="480" y="655" width="150" height="50" as="geometry" />
        </mxCell>
        <mxCell id="yXbJXcxyzhRO19lz1-nd-20" style="edgeStyle=entityRelationEdgeStyle;rounded=0;orthogonalLoop=1;jettySize=auto;html=1;exitX=1;exitY=1;exitDx=0;exitDy=0;entryX=0;entryY=0;entryDx=0;entryDy=0;endArrow=none;endFill=0;dashed=1;dashPattern=1 4;strokeColor=#0000FF;" parent="1" source="gk9bBfAuXZcHd2vXawck-1" edge="1">
          <mxGeometry relative="1" as="geometry">
            <mxPoint x="370" y="240" as="sourcePoint" />
            <mxPoint x="1030" y="660" as="targetPoint" />
          </mxGeometry>
        </mxCell>
        <mxCell id="cCusPYkFXxiys2kptESl-5" value="&lt;h1&gt;老标签体系&lt;/h1&gt;&lt;p&gt;wx_label(id,label_id)wx_label_element_map(element_id,id)wx_element_resource(id,element_id)wx_element_info(id,relate_id)wx_resource_v2&lt;/p&gt;&lt;div&gt;&lt;h1 style=&quot;border-color: var(--border-color);&quot;&gt;新标签体系&lt;/h1&gt;&lt;p style=&quot;border-color: var(--border-color);&quot;&gt;wx_label_v2(id,label_id)wx_label_spu_map(spu_id,spu_id)wx_spu_element_info_map(element_info_id,id)wx_element_info(id,relate_id)wx_resource_v2&lt;/p&gt;&lt;p style=&quot;border-color: var(--border-color);&quot;&gt;&lt;br&gt;&lt;/p&gt;&lt;/div&gt;" style="text;html=1;strokeColor=none;fillColor=none;spacing=5;spacingTop=-20;whiteSpace=wrap;overflow=hidden;rounded=0;" parent="1" vertex="1">
          <mxGeometry x="480" y="-120" width="880" height="150" as="geometry" />
        </mxCell>
        <mxCell id="tPv97vK1BBPCxipqFp93-5" style="edgeStyle=orthogonalEdgeStyle;rounded=0;orthogonalLoop=1;jettySize=auto;html=1;entryX=0;entryY=0;entryDx=0;entryDy=0;exitX=0.5;exitY=1;exitDx=0;exitDy=0;curved=1;dashed=1;dashPattern=1 2;endArrow=none;endFill=0;" parent="1" source="tPv97vK1BBPCxipqFp93-4" target="gk9bBfAuXZcHd2vXawck-1" edge="1">
          <mxGeometry relative="1" as="geometry" />
        </mxCell>
        <mxCell id="tPv97vK1BBPCxipqFp93-6" value="background_image" style="edgeLabel;html=1;align=center;verticalAlign=middle;resizable=0;points=[];" parent="tPv97vK1BBPCxipqFp93-5" vertex="1" connectable="0">
          <mxGeometry x="-0.028" relative="1" as="geometry">
            <mxPoint as="offset" />
          </mxGeometry>
        </mxCell>
        <mxCell id="tPv97vK1BBPCxipqFp93-7" value="id" style="edgeLabel;html=1;align=center;verticalAlign=middle;resizable=0;points=[];" parent="tPv97vK1BBPCxipqFp93-5" vertex="1" connectable="0">
          <mxGeometry x="-0.204" y="24" relative="1" as="geometry">
            <mxPoint as="offset" />
          </mxGeometry>
        </mxCell>
        <mxCell id="tPv97vK1BBPCxipqFp93-4" value="&lt;font style=&quot;&quot;&gt;&lt;span style=&quot;font-size: 11px;&quot;&gt;wx_background_image&lt;/span&gt;&lt;br&gt;&lt;span style=&quot;font-size: 11px;&quot;&gt;背景图库分类&lt;/span&gt;&lt;/font&gt;" style="rounded=0;whiteSpace=wrap;html=1;" parent="1" vertex="1">
          <mxGeometry x="90" y="-130" width="120" height="60" as="geometry" />
        </mxCell>
        <mxCell id="H7MIrLD20zvAkdE0tKrQ-11" style="edgeStyle=orthogonalEdgeStyle;rounded=0;orthogonalLoop=1;jettySize=auto;html=1;endArrow=none;endFill=0;" parent="1" source="H7MIrLD20zvAkdE0tKrQ-1" target="H7MIrLD20zvAkdE0tKrQ-4" edge="1">
          <mxGeometry relative="1" as="geometry" />
        </mxCell>
        <mxCell id="H7MIrLD20zvAkdE0tKrQ-12" value="id" style="edgeLabel;html=1;align=center;verticalAlign=middle;resizable=0;points=[];" parent="H7MIrLD20zvAkdE0tKrQ-11" vertex="1" connectable="0">
          <mxGeometry x="-0.3846" y="1" relative="1" as="geometry">
            <mxPoint as="offset" />
          </mxGeometry>
        </mxCell>
        <mxCell id="H7MIrLD20zvAkdE0tKrQ-13" value="attr_id" style="edgeLabel;html=1;align=center;verticalAlign=middle;resizable=0;points=[];" parent="H7MIrLD20zvAkdE0tKrQ-11" vertex="1" connectable="0">
          <mxGeometry x="0.5077" relative="1" as="geometry">
            <mxPoint as="offset" />
          </mxGeometry>
        </mxCell>
        <mxCell id="H7MIrLD20zvAkdE0tKrQ-1" value="&lt;font style=&quot;&quot;&gt;&lt;span style=&quot;font-size: 11px;&quot;&gt;wx_attribute&lt;br&gt;属性数据表&lt;/span&gt;&lt;br&gt;&lt;/font&gt;" style="rounded=0;whiteSpace=wrap;html=1;" parent="1" vertex="1">
          <mxGeometry x="-170" y="1320" width="120" height="60" as="geometry" />
        </mxCell>
        <mxCell id="H7MIrLD20zvAkdE0tKrQ-6" style="edgeStyle=orthogonalEdgeStyle;rounded=0;orthogonalLoop=1;jettySize=auto;html=1;entryX=0;entryY=0.5;entryDx=0;entryDy=0;endArrow=none;endFill=0;" parent="1" source="H7MIrLD20zvAkdE0tKrQ-2" target="H7MIrLD20zvAkdE0tKrQ-1" edge="1">
          <mxGeometry relative="1" as="geometry">
            <Array as="points">
              <mxPoint x="-230" y="1350" />
              <mxPoint x="-230" y="1350" />
            </Array>
          </mxGeometry>
        </mxCell>
        <mxCell id="H7MIrLD20zvAkdE0tKrQ-7" value="attr_id" style="edgeLabel;html=1;align=center;verticalAlign=middle;resizable=0;points=[];" parent="H7MIrLD20zvAkdE0tKrQ-6" vertex="1" connectable="0">
          <mxGeometry x="-0.4875" y="-3" relative="1" as="geometry">
            <mxPoint x="-3" as="offset" />
          </mxGeometry>
        </mxCell>
        <mxCell id="H7MIrLD20zvAkdE0tKrQ-9" value="id" style="edgeLabel;html=1;align=center;verticalAlign=middle;resizable=0;points=[];" parent="H7MIrLD20zvAkdE0tKrQ-6" vertex="1" connectable="0">
          <mxGeometry x="0.6125" relative="1" as="geometry">
            <mxPoint as="offset" />
          </mxGeometry>
        </mxCell>
        <mxCell id="H7MIrLD20zvAkdE0tKrQ-2" value="&lt;font style=&quot;&quot;&gt;&lt;span style=&quot;font-size: 11px;&quot;&gt;wx_attribute_value&lt;br&gt;属性值数据表&lt;/span&gt;&lt;br&gt;&lt;/font&gt;" style="rounded=0;whiteSpace=wrap;html=1;" parent="1" vertex="1">
          <mxGeometry x="-490" y="1320" width="120" height="60" as="geometry" />
        </mxCell>
        <mxCell id="H7MIrLD20zvAkdE0tKrQ-15" value="" style="edgeStyle=orthogonalEdgeStyle;rounded=0;orthogonalLoop=1;jettySize=auto;html=1;endArrow=none;endFill=0;" parent="1" source="H7MIrLD20zvAkdE0tKrQ-4" target="H7MIrLD20zvAkdE0tKrQ-14" edge="1">
          <mxGeometry relative="1" as="geometry" />
        </mxCell>
        <mxCell id="H7MIrLD20zvAkdE0tKrQ-16" value="sort_id" style="edgeLabel;html=1;align=center;verticalAlign=middle;resizable=0;points=[];" parent="H7MIrLD20zvAkdE0tKrQ-15" vertex="1" connectable="0">
          <mxGeometry x="-0.5091" relative="1" as="geometry">
            <mxPoint as="offset" />
          </mxGeometry>
        </mxCell>
        <mxCell id="H7MIrLD20zvAkdE0tKrQ-17" value="id" style="edgeLabel;html=1;align=center;verticalAlign=middle;resizable=0;points=[];" parent="H7MIrLD20zvAkdE0tKrQ-15" vertex="1" connectable="0">
          <mxGeometry x="0.5273" relative="1" as="geometry">
            <mxPoint as="offset" />
          </mxGeometry>
        </mxCell>
        <mxCell id="H7MIrLD20zvAkdE0tKrQ-4" value="&lt;font style=&quot;&quot;&gt;&lt;span style=&quot;font-size: 11px;&quot;&gt;wx_attribute_sort_relate属性品类关联数据表&lt;/span&gt;&lt;br&gt;&lt;/font&gt;" style="rounded=0;whiteSpace=wrap;html=1;" parent="1" vertex="1">
          <mxGeometry x="80" y="1320" width="120" height="60" as="geometry" />
        </mxCell>
        <mxCell id="H7MIrLD20zvAkdE0tKrQ-14" value="wx_sort_of_spu&lt;br&gt;品类数据表" style="whiteSpace=wrap;html=1;rounded=0;" parent="1" vertex="1">
          <mxGeometry x="310" y="1320" width="120" height="60" as="geometry" />
        </mxCell>
        <mxCell id="Y0Qqjpl2INI-axkF_LGO-1" value="" style="shape=image;verticalLabelPosition=bottom;labelBackgroundColor=default;verticalAlign=top;aspect=fixed;imageAspect=0;image=data:image/png,iVBORw0KGgoAAAANSUhEUgAAAKwAAAE7CAYAAABAJWqXAAAYlklEQVR4Ae2dz4seRRrHc/GPMJecRQLC4sGwYfGgZE+7F0XCskF0icgIopFd1uSk4yyGCDLMZV6IeAkEZ3DUS8iQvLkPOHicv6aWp6qep56qru63+337fbu6328g9K/qququz/Op6neg6tJrb75r8B/vYEgGTId/l4asKMpGoBADXf4BWPQwg/ewABYQDg5hl94TwAJYANslYpAWY9MuDMCwMCwM2yVikBaG7cIADAvDwrBdIgZpYdguDMCwMCwM2yVikBaG7cLABgz7tXnw4sL88N2ihnlofnjxm3mng/He+fGPFvlSuVSHF+aLDnl3eYlIu6ht+7u+BmAdoPOzC9P4n+D87kVzGsnjD/Pg8+pDtweW7u0eEACx+s7bvpO//P39tQw11gSsstnnv5lff3m4oPLtDEiANgbB2YX59cevo7IiqL97UbnetgGQrj28b33yrfn3f/9nvvzkX1Fb9PEO1wdsoz0TY1qQHtqhQw5IhjCC7813TXr8mgbSB0olDQ0L6FrH4UcfL3sb8iBY73xwy4L65w++6R3a9QFLYBC03q5f/JJAKuPJh+aHM2VkOf+u+eKXCzNXYKXwpccaWL7G2xQWynvxuLq9VdL8t+/4PfPXT781d97/R2TVN97/xnz56W3zJ9Wuq7ybNQLbNJZleDlNCqw7nwJF8OUMrM+xjTlA6oCFZXsOxrd3zHv/jGFlMN/452fmb2/3U94agY0ryADxQ9itDAVemAeNMDrAU/jS42DYYO1KGhXpsGzcRlHbqPdU0vk1AOu+xh9Qdy5f+Zl96epzH1y5c9WXWwujGopk07T6EKyWV1LDbWtdegeWAOFuWb/UrGFtFOfgzJ2rApSFMTFDNo3+OEvS6zpjv/rOh34nPQNbD1o7YOl+b2MxcP1Ly8KYAkg2rZiex9D1eQ/dMCg/3zY9A5svBC8f76UvBgBsamQcRz9L9QVaX/kAWABaNKAp6AAWwALYNCpwjDFsXwzAsDAsDNtXNCEfmDllAIaFYWHYNCpwDFP2xQAMC8PCsH1FE/KBmVMGYFgYFoZNowLHMGVfDMCwMCwM21c0IR+YOWUAhoVhp2vYK1evG/zHOxiSgU6GHbKiKBuBQgx0+XcJ0ACaoRkAsBjmjGqYB2ABLIAduttA+dMdusCwMCwMC8NN13BDty0MC8PCsENHIcqfruFhWBgWhoXhpmu4odsWhoVhYdihoxDlT9fwMCwMC8PCcNM13NBtu92GvX1kTs7Ozd5tDdi+mZ2dmh1l3huz82j6+9nxaXTMU+OfzO6MylZDw7dM+WUCu5sAcbwvIOwcX5i5Or5iobswFpYcgPZcDKB7UXfM3jyz9kJltm4Get/M5kfmBoG8e+rKu0p5+LzlnIYf+8tA2XRPgcCS4S7MbJcb2x2zvSJgU0DTY4KrDlgKCgugA5fKC3mndaC6xMCyVfWW69j0wnGN23W5bXnA5qBT3bNAlUtXey5nWAelBi67LzaPgXVwwrCbDsDygL163egxY2otC+z83Jyc+WGAgtnZlLtwH8F1htXG1HnofbqXgI2GKOdmb5YMWfwwIq3rphtzG8orEtjw4oMFeYhggbUfSpluu5NhCeiGcSyPVwVgGDa0y3LdeR/3Fw6sezHWuL5rliEBgWTNp7t7gritYRlYfT83hIIzB6ycU0MCOcd5YNsHoGke5QFrIYyhI2C5u42Aveo/lMSGzpiclh7WDSH8130FqgbDUjcv41eCL9j+ZB7/zCVjX6kHYE1B6+u4PGCTMayFQYGTAivduqQJYDmQcgZloBoMyeNXgtyPYXUguAZouL8SHFwmtqvAWySwqzxQt3u7GNaDZsfJdb/fxj1Dt7oA5Dbva8uBBSRtICkpDYBF1y1/RSwJzLq6AFgAC2DrogPnMQRZlQEYFoaFYVeNItwPE9cxAMPCsDBsXXTgPMy5KgMwLAwLw64aRbgfJq5jAIaFYWHYuujAeZhzVQZgWBgWhl01inA/TFzHQCfDvvTyqwb/8Q6GZADAIghHJSEAC2AB7JBdBsqe9pAFhoVhYVhYbtqWG7J9YVgYFoYdMgJR9rTtDsPCsDAsLDdtyw3ZvjAsDAvDDhmBKHvadodhYVgYFpabtuWGbF8YFoaFYYeMwOHLvm8Onj0yryMQ1hIIhRr2I3Pv2RNzSzf6zUfm+PH9/Eu4+8Qc3NXdcOZ+yavpms7jVfMSlanhu/vEzGvq8PrB79m1u3iyY10/m1bnS3XL5J3mefD4SbaM44OP8u9Fnjl5rhGfLw9YC+YjAfbW4/xcrBqAl17+yNx7rK3WYDkCo7IWF5cRBwkBc/ysHYiUNq5TgCS6Rs9XWz7X48LMBWj1LHefGAenCjo5F8obvpdZX13KAzYBSiDIGTZJ60D83dw7SKH83dy7SS/xvjk4i6EMjasgsAZKj5sbIbVhGhT8HBSAFjoLLtWF6nThYLfPk9YvBjbNl45h2DzGl0LjNjfeKuleP3hi7t1kWFxj5hopGOgj87qFMWzvPQuNqO2WtzUDksBM8HjL5e+7iIYHupz0+aNr2SBTZvX2ZcBtkLFtxab8ftxQAsAOBizbxDXIwWM2YwiQqPFfftWIsWhY8Mw1/PHjJzLevcV53HxkDg7uy1DDQaUaPrKvDxQGpcWYj+qVDawUQIEuPFMt4BHcuZ7DPy/GsFliN2JYOx714B3cDRBWYHj2yPyHutdnv4dxnYxj2ZYcAAxHLr+MYW8+Mvfuhnt7NSzB3zCOrdoy1IM+zNx1FWhyjp9x2tssmTUnNwAsNQRZVTVIMnZNDUt2YruFbjSciwFQ+abWpHIioypQ0rSZY65DJbBSwzKwuV8bsvDl6tHwHJm6pQYf83ENm9nTGwCW7ZA0CHWNvoFzwNqfhAgMDYHtTtMhRZKvH1IwZAR3yD+AUgdjHAxcdx8sGv4k6JoMS3XRgec+FH3XX/eLhS4LwAq8wwGrGoG6Z92gFibfYHzNAfbE3LJdbwytjGlVnsE4BDSnj4HVZdr02oY+oALsrtu/d9fBa8GmNAxWCrCqS5SHDbrwARnXk4cyIVDC9emeExpb7AwKbBhHhoayYGqrsjH1uQRaB3P1q5wtGywdAyvXfRdPx86wCnIPWJyWA0BBZOtUX4dKcBDQjfdkylBBMCWQW3AqSTYIrGrcib74KUG0yWcRGlvsAFgEz+B/Am7BqSQBsAAWwG6yO0FZ4x9qiT5b7MCwMCwMC+uN33qbbMMWYpUkMCwMC8NuMjpR1vhtLvpssQPDwrAwLKw3futtsg1biFWSwLAwLAy7yehEWeO3ueizxQ4MC8PCsLDe+K23yTZsIVZJcunyK9cM/uMdDMmA0NhiB8AiYAcXVgtOJQmABbAAdsjuBWWPb3gj+myxA8PCsDAsLDc+yw3ZZi3EKklgWBgWhh0yWlH2+Owu+myxA8PCsDAsLDc+yw3ZZi3EKklgWBgWhh0yWlH2+Owu+myxA8PCsDAsLDc+yw3ZZi3EKklgWBgWhh0yWlH2+Owu+myxs3HDvnV4bn4+/MxcfuUzs/v83Ox+mHnBXz31aa6Zy2r/4+OLcF6ZkfI8/IryoTyrU1668q4ZShdPm5mU/+FP5ufj78U4VN5cHVMwhPpzvdMyn5pDuk9N4en2k7JU/bc9yFpwKkk2CqwFRgNAgJw9NR9HjUcAhHMfH8cNXQXGQRSADfdaEBTwdK9L52CTvDmNBvarpxnoMiDy83Aer1wzkq/KT85Fz8rQb/dWaGyxsyFgvzeHZ3k7XrbQXiiQXNqqoVJYCOQk7fOn5tDDLoAokBhY3lbSCGDOmhZuAvf5T+YtW08XPHS/PafhU+VYM8Ow0lMt6kFacCpJNgKsgKEbONm3jUxgROe/N4dssOh8bCQG0A0JnGGlTAUSp+NtJY0Amxs+pAFDx8r+qhzJV+Un5xqeY1HDTvW60NhiZyPA0ou2VqpYx0NQAdUDWdctc/rK9XPzcy+G1cOMODg0NAxhZNTnP5ldjGFb25XeZ5d/GwOWG5rtxsd2SJC1qBvLHh4nY1JlLc6DwQmGVeNgZT4um9PzVj7s0rwrAREsq8fCth6qHMlX5SfnYNgKzEUDW2k41agMYAyAHhbQmDUBWH4ZoO7Zg0p5ks0pEBRIDtgAs9SF06R14fMJZAx+vr7KyGl+ST7R/Vt8rVxgqQG5O+cGIotVDJuAKaZTY0a+X6AgEN116qIPD+OfqAQOSm+HJin410zF9lJuMGv4GEzqImlpWJJLX/PRyc+xxdsygbWgJI3c8Ltm6HL9LwHPz4M1pXEDpAykHU9SAAjIajyq62ABS+qj7rH51RiWromd7T4BmuRFdUzzk3orC+NcF17NZsawFg5lNLFRpqE9JOFDRt1HjSv3PjUfJ0BQVx1srX/y8mnT4QQDKXkmFlTng1nZnhlAl/243HJouxC7GWC3vEHY/tjmexYAiwCpfImXHCwAFsAC2JIjFHXLd7VjeS8wLAwLw44lWlHP8dkWhoVhYViYa3zmGkubwbAwLAw7lmhFPcfXE8CwMCwMC3ONz1xjaTMYFoaFYccSrajn+HqCToa9cvW6wX+8gyEZALAIwlFJCMACWAA7ZJeBsqc9ZIFhYVgYFpabtuWGbF8YFoaFYYeMQJQ9bbvDsDAsDAvLTdtyQ7YvDAvDwrBDRiDKnrbdYVgYFoaF5aZtuSHbF4aFYWHYISMQZU/b7kUa9sYsXSOLp60M29kuN8y+mc2PzI3IlHfM3vzU7ETnKP2+mZ1dmHAvnaO052bvNud33VzZPY2WMTo5PjUnuTUXjvdHZacpBHOxwMZQKZiuXjcEdLiugWVQeRvft5NdACMEAc/r6vJWedw+Micezp1jD7c6NwUQxvIMxQLL8NRtI2DtGgX75gpBlDMhGdhec9YlcE9mdyz4c2tngtOdCw2XAJvLF4bdeA9TLLAEpNjMdtvcxSujEoTzc3MyPzI7s1O777p2BZsMCxyUdQEg52V4ofJQNpU6qXMB8tjoON//+ygc2Gp3bcHyUNHQ4GR25MawEUAKtghYhr7uRfpgoLyUUWez+FjghmFhWLKSWKwVbMG4tWNUBVZtmrMUZgW9CgapmzoHk9YJoP/zRRrWQjGLv9TFat58NAZ1oARgAzgKNoHevTwBLjqfS587lwum/hslPAfyTt9FgcDST0+nZmf31H4YuQozPPtmRraMrnUFtmaYQYEg41cChcp0aWmcnAaMO06tDMBSwPo+Lg9Y+g1UQVn9Tfbc7NEHVq+GJdAU+DyGVUMJfvF5QwNUfj/r3hYHrAARWZSBcD/8k92in7XIjMmP/bERwx8G6sewqWGrZcZ5OvuGenB6bNcJbXHArvNhkff4gwnARh9f42/QqQclgAWwG/8tdZWgArAAFsCuEkG4F8OSJgZgWBgWhm2KEFyDQVdhAIaFYWHYVSII98LATQzAsDAsDNsUIbgGg67CAAwLw8Kwq0QQ7oWBmxiAYWFYGLYpQnANBl2FARgWhoVhV4kg3AsDNzEAw8KwMGxThOAaDLoKAzAsDAvDrhJBuBcGbmIAhoVhYdimCME1GHQVBmBYGBaGXSWCcC8M3MQADAvDwrBNEYJrMOgqDMCwMCwMu0oE4V4YuIkBGBaGhWGbIqTNteqcsNVJiMM0l2peV4GPJ0DO2Irnn5W0ufvpvpZrevl0MhXn/NTM/ETIcs7OGo7Jj9u0/aI0RRo2XoerCl18XQPHoPK2ei/ND1u7yIYFy80l2ziPrJ+2noDkwAl1UmXLHLfqnARKtW6LGgvXr3fh1Vza1AvrbFgCiGbL5pmzFVDWcjIVvIabgcmcs/k4IxK4i9f00ovdEZzVHmFeWfSDy8e2C1ddiN0osGQumY27l3W6HFS8jkGdQZ0x66BLQJRASIH13T8M2/v4uHBgE0DYnB4UMnH7dbrIpG4ROlqXNgRDMFy2W6/twtnMCdzHRzBs7TsL77qLVXXaIoGtwtQ0BmRwCMIawP1wYW93cVoek9JLqs0v071nYYdht8OwFti1rNOlgQ0LdXAEB+icCaqBQ+fzwZPea/MUYFc3C9dx27cFGnad63RpYPM2bmfY6oozBKz7wDuPlv3UP23pvLcdvGWfvzxg+XdSbycBgcevZ6us06WBXdawZMuQT1iALvM7Kww7/SGBdMPZxl51nS4H2l7dWNcHBS9aVz+GrRqWjdF4T2ahOr4P23bDpvIMu8YvTEDRDoqS3xOARYD03m2vE3gAC2AB7DojDHmPv1tfpQ1hWBgWhl0lgnDvdht0UfvDsDAsDLsoSnAdFl2WARgWhoVhl40e3AfzLmIAhoVhYdhFUYLrMOmyDMCwMCwMu2z04D6YdxEDMCwMC8MuihJch0mXZQCGhWFh2GWjB/fBvIsYgGFhWBh2UZTgOky6LAMwLAwLwy4bPbgP5l3EAAwLw8Kwi6IE12HSZRmAYWFYGHbZ6MF9MO8iBmBYGBaGXRQluA6TLssADAvDwrDLRk/lPpnBMD+JcCU94BsVfMu0X3GGTeeDdVNfJusIqOWGaleO4flkZeGMah56smHZl/RJt03z1tZd4+nlk+k06Vl46k7XOGkdTs0sO/Vnde7aZRp3ivcUB2z0ktsYlpYoSkAJeaQTD4dJh2ke1+qM2Co9AcrQN2xtHi3T2qWZqBeQ51KLg6jnkDly0WNUeowygVUAsKEqEwUzpHVrczFkYsUwrEgt7sAkmGNguWwKgHqInDUFXCrP1slZ0pYldfDWjoDNTV0PwwbpxD1dccBaMBnGJQyTNyc9tAN2j9ciUCvBBBhTYPdrljDykPl65gMgBVFBGAHrz8OwFZvmoC0OWFtJZdhctxy68jCFfC6dnLOGC4a1ZWgzS4CkwN7xoFeh0i+TgA11io3A6Tgoop5ifmTy09cruJcIWi5zittigdXdsX7xVTgUZGnjKmuxYeUjR3fTPkBkkTrKhy3YFDwCuksvAcLDEb+twMx566GGqivDrZ8b+04ExQJb1/h0PgZggWUFqtiwqelodcRodRgFlcCioJJzHCS59Ff1kp7KvLm0TXlzGdh24XVziyOL3TINVDWsA4HHrnydjmNLB2AdrOEXgwBfsLXNZ3ZUu+YWB5QET5OJaamm2zGw7n5aSjQd67rjuO7q3sw7CfWffrouxG5scWQCloHIbQUSajwyE3W96gPIXSdAqfEZlgCsa+DYzA4QBpauZYBusmDOmh4u3cW7YOE6KcCa8t5ySHVAFgtsnWFuzE6VrQhCbnwGkI89DAS/hZkBzhtNAoPGtnXwNUHVGGRJnTyAZHEpNxn3Nv2RQjfgtu2XCWxqlAiGjPnS9Nnj1LDKbpKeDZu7hnMlBMc4gBWgAE0J0AxZBwCLYGj1g/2QkOqyASyABbA6IrCPYUyfDMCwMCwM22dEIS8YWjMAw8KwMKyOCOzDkH0yAMPCsDBsnxGFvGBozQAMC8PCsDoisA9D9skADAvDwrB9RhTygqE1AzAsDAvD6ojAPgzZJwMwLAwLw/YZUcgLhtYMwLAwLAyrIwL7MGSfDMCwMCwM22dEIS8YWjMAw8KwMKyOCOzDkH0yAMPCsDBsnxGFvGBozQAMC8PCsDoisA9D9slA2YaVWQTbTOQGMPoEo9S8igM2nYLSTbtZnSpT5ojl+WHT6Sr5WKaGr+aRnepS0icBQDMo1l1TwwqeWNnO5p2bY9bPyi15JVN4hvuT8lUZpcK0iXoVB2z00G0MmzR4dL9exsivIrPjGz4PhppuM5ris35OWQkcv7hcNK9tDeQ3bt8xdmJjmrdW1V/OAc7acXWZwCpYGADbmGxN2vLaBZ0M6+aWTS3uTEvXYmC5bAoCPYt2HBRhFnANr6Sxz8ITGre0/Fk63T1sy++zOGBXtQzdnwVnbet0tRlfe1A5yNigu6dmRusozM8bVnMErAwrbbv8K3CNA54mvr7Ltva0Y88ELG1mASlnWLrPG1J13/ol0n6lB8j1Bh5UMbweEmR6lbQMHBcMrO6OdUNRY8cGVZCxuXgbAeaAXds6Xb7MytBBxuFkyhrTcn391gItQQTD6vYfuWGpMRdYVho+NmxkRPn6V/BHoHloogDIgRSXYV90Lh8N6MI8c+Vs77ligW1vWNd4PHZlA9NxnEeAycGaW9wjAGvz6bJOF0FI3boEiKsX5RPq4Q2rhws1++Ge7YVTm5X3iwU2+xupb9xoSECGovMeFAZWut8NrtM1z/zuyoHELzza8i8IM1qXjH9JAKDRO9K9UckfXXWGKXGdLgoS+UMA/2FAzKlNnhg2snFyTYYpAFgDXKZhk6iKV0bUAHRpzDAk0C8g3g9Dgvh8l3KQdp3vbhzApgDjuPYvQeuEpYS8ASzgHxX8ABbAAtgSug7UYZpjaRgWhoVhYbdp2q2EdoVhYVgYtoRIRB2maXkYFoaFYWG3adqthHbtYtj/AxoW/eCWFsNcAAAAAElFTkSuQmCC;" vertex="1" parent="1">
          <mxGeometry x="-730" y="1320" width="172" height="315" as="geometry" />
        </mxCell>
        <mxCell id="Y0Qqjpl2INI-axkF_LGO-3" style="edgeStyle=orthogonalEdgeStyle;rounded=0;orthogonalLoop=1;jettySize=auto;html=1;endArrow=none;endFill=0;" edge="1" parent="1" source="Y0Qqjpl2INI-axkF_LGO-6" target="Y0Qqjpl2INI-axkF_LGO-11">
          <mxGeometry relative="1" as="geometry" />
        </mxCell>
        <mxCell id="Y0Qqjpl2INI-axkF_LGO-4" value="id" style="edgeLabel;html=1;align=center;verticalAlign=middle;resizable=0;points=[];" vertex="1" connectable="0" parent="Y0Qqjpl2INI-axkF_LGO-3">
          <mxGeometry x="-0.3846" y="1" relative="1" as="geometry">
            <mxPoint x="-15" as="offset" />
          </mxGeometry>
        </mxCell>
        <mxCell id="Y0Qqjpl2INI-axkF_LGO-5" value="image_id" style="edgeLabel;html=1;align=center;verticalAlign=middle;resizable=0;points=[];" vertex="1" connectable="0" parent="Y0Qqjpl2INI-axkF_LGO-3">
          <mxGeometry x="0.5077" relative="1" as="geometry">
            <mxPoint as="offset" />
          </mxGeometry>
        </mxCell>
        <mxCell id="Y0Qqjpl2INI-axkF_LGO-6" value="&lt;font style=&quot;&quot;&gt;&lt;span style=&quot;font-size: 11px;&quot;&gt;wx_background_image&lt;/span&gt;&lt;br&gt;背景图库分类&lt;/font&gt;" style="rounded=0;whiteSpace=wrap;html=1;" vertex="1" parent="1">
          <mxGeometry x="-510" y="1490" width="120" height="60" as="geometry" />
        </mxCell>
        <mxCell id="Y0Qqjpl2INI-axkF_LGO-7" value="id" style="edgeLabel;html=1;align=center;verticalAlign=middle;resizable=0;points=[];" vertex="1" connectable="0" parent="1">
          <mxGeometry x="-450" y="1569" as="geometry" />
        </mxCell>
        <mxCell id="Y0Qqjpl2INI-axkF_LGO-8" value="" style="edgeStyle=orthogonalEdgeStyle;rounded=0;orthogonalLoop=1;jettySize=auto;html=1;endArrow=none;endFill=0;" edge="1" parent="1" source="Y0Qqjpl2INI-axkF_LGO-11" target="Y0Qqjpl2INI-axkF_LGO-12">
          <mxGeometry relative="1" as="geometry" />
        </mxCell>
        <mxCell id="Y0Qqjpl2INI-axkF_LGO-9" value="item_id" style="edgeLabel;html=1;align=center;verticalAlign=middle;resizable=0;points=[];" vertex="1" connectable="0" parent="Y0Qqjpl2INI-axkF_LGO-8">
          <mxGeometry x="-0.5091" relative="1" as="geometry">
            <mxPoint x="-12" as="offset" />
          </mxGeometry>
        </mxCell>
        <mxCell id="Y0Qqjpl2INI-axkF_LGO-10" value="id" style="edgeLabel;html=1;align=center;verticalAlign=middle;resizable=0;points=[];" vertex="1" connectable="0" parent="Y0Qqjpl2INI-axkF_LGO-8">
          <mxGeometry x="0.5273" relative="1" as="geometry">
            <mxPoint as="offset" />
          </mxGeometry>
        </mxCell>
        <mxCell id="Y0Qqjpl2INI-axkF_LGO-11" value="&lt;font style=&quot;&quot;&gt;&lt;span style=&quot;font-size: 11px;&quot;&gt;wx_background_image_item_relate&lt;br&gt;&lt;/span&gt;图库-分类-中间表&lt;/font&gt;" style="rounded=0;whiteSpace=wrap;html=1;" vertex="1" parent="1">
          <mxGeometry x="-190" y="1490" width="250" height="60" as="geometry" />
        </mxCell>
        <mxCell id="Y0Qqjpl2INI-axkF_LGO-12" value="wx_background_image_item&lt;br&gt;背景图库数据表" style="whiteSpace=wrap;html=1;rounded=0;" vertex="1" parent="1">
          <mxGeometry x="250" y="1490" width="220" height="60" as="geometry" />
        </mxCell>
      </root>
    </mxGraphModel>
  </diagram>
</mxfile>
